{
	"asset":{
		"generator":"Khronos glTF Blender I/O v4.2.57",
		"version":"2.0"
	},
	"scene":0,
	"scenes":[
		{
			"name":"Scene",
			"nodes":[
				0
			]
		}
	],
	"nodes":[
		{
			"mesh":0,
			"name":"body",
			"scale":[
				1.5750000476837158,
				0.25,
				8
			],
			"translation":[
				0,
				0.5184352993965149,
				0
			]
		}
	],
	"materials":[
		{
			"doubleSided":true,
			"name":"\u041c\u0430\u0442\u0435\u0440\u0456\u0430\u043b.003",
			"pbrMetallicRoughness":{
				"baseColorFactor":[
					0.6253607869148254,
					0.0264713354408741,
					0,
					1
				],
				"metallicFactor":0
			}
		},
		{
			"doubleSided":true,
			"name":"\u041c\u0430\u0442\u0435\u0440\u0456\u0430\u043b",
			"pbrMetallicRoughness":{
				"baseColorFactor":[
					0.014492912217974663,
					0.014492912217974663,
					0.014492912217974663,
					1
				],
				"metallicFactor":0
			}
		},
		{
			"doubleSided":true,
			"name":"\u041c\u0430\u0442\u0435\u0440\u0456\u0430\u043b.001",
			"pbrMetallicRoughness":{
				"baseColorFactor":[
					0.01771010085940361,
					0.2939492464065552,
					0,
					1
				],
				"metallicFactor":0
			}
		},
		{
			"doubleSided":true,
			"name":"\u041c\u0430\u0442\u0435\u0440\u0456\u0430\u043b.004",
			"pbrMetallicRoughness":{
				"baseColorFactor":[
					0.4527016878128052,
					0.4527016878128052,
					0.4527016878128052,
					1
				],
				"metallicFactor":0
			}
		},
		{
			"doubleSided":true,
			"name":"\u041c\u0430\u0442\u0435\u0440\u0456\u0430\u043b.002",
			"pbrMetallicRoughness":{
				"baseColorFactor":[
					0.43060094118118286,
					0.34608030319213867,
					0,
					1
				],
				"metallicFactor":0
			}
		}
	],
	"meshes":[
		{
			"name":"\u041a\u0443\u0431.002",
			"primitives":[
				{
					"attributes":{
						"POSITION":0,
						"NORMAL":1,
						"TEXCOORD_0":2
					},
					"indices":3,
					"material":0
				},
				{
					"attributes":{
						"POSITION":4,
						"NORMAL":5,
						"TEXCOORD_0":6
					},
					"indices":7,
					"material":1
				},
				{
					"attributes":{
						"POSITION":8,
						"NORMAL":9,
						"TEXCOORD_0":10
					},
					"indices":11,
					"material":2
				},
				{
					"attributes":{
						"POSITION":12,
						"NORMAL":13,
						"TEXCOORD_0":14
					},
					"indices":15,
					"material":3
				},
				{
					"attributes":{
						"POSITION":16,
						"NORMAL":17,
						"TEXCOORD_0":18
					},
					"indices":19,
					"material":4
				}
			]
		}
	],
	"accessors":[
		{
			"bufferView":0,
			"componentType":5126,
			"count":163,
			"max":[
				1,
				1,
				0.9805316925048828
			],
			"min":[
				-1,
				-4.199999809265137,
				-0.9822494983673096
			],
			"type":"VEC3"
		},
		{
			"bufferView":1,
			"componentType":5126,
			"count":163,
			"type":"VEC3"
		},
		{
			"bufferView":2,
			"componentType":5126,
			"count":163,
			"type":"VEC2"
		},
		{
			"bufferView":3,
			"componentType":5123,
			"count":297,
			"type":"SCALAR"
		},
		{
			"bufferView":4,
			"componentType":5126,
			"count":199,
			"max":[
				1,
				1,
				0.9805316925048828
			],
			"min":[
				-1,
				-4.803879737854004,
				-0.9822494983673096
			],
			"type":"VEC3"
		},
		{
			"bufferView":5,
			"componentType":5126,
			"count":199,
			"type":"VEC3"
		},
		{
			"bufferView":6,
			"componentType":5126,
			"count":199,
			"type":"VEC2"
		},
		{
			"bufferView":7,
			"componentType":5123,
			"count":339,
			"type":"SCALAR"
		},
		{
			"bufferView":8,
			"componentType":5126,
			"count":194,
			"max":[
				0.9904819130897522,
				11.450593948364258,
				0.929760217666626
			],
			"min":[
				-0.9904819130897522,
				0.9581575393676758,
				-0.9238234758377075
			],
			"type":"VEC3"
		},
		{
			"bufferView":9,
			"componentType":5126,
			"count":194,
			"type":"VEC3"
		},
		{
			"bufferView":10,
			"componentType":5126,
			"count":194,
			"type":"VEC2"
		},
		{
			"bufferView":11,
			"componentType":5123,
			"count":450,
			"type":"SCALAR"
		},
		{
			"bufferView":12,
			"componentType":5126,
			"count":160,
			"max":[
				0.8720071911811829,
				11.450593948364258,
				0.9502782821655273
			],
			"min":[
				-0.8720071911811829,
				8.575281143188477,
				-0.948495626449585
			],
			"type":"VEC3"
		},
		{
			"bufferView":13,
			"componentType":5126,
			"count":160,
			"type":"VEC3"
		},
		{
			"bufferView":14,
			"componentType":5126,
			"count":160,
			"type":"VEC2"
		},
		{
			"bufferView":15,
			"componentType":5123,
			"count":252,
			"type":"SCALAR"
		},
		{
			"bufferView":16,
			"componentType":5126,
			"count":1544,
			"max":[
				0.9967367053031921,
				4.810336589813232,
				0.9889130592346191
			],
			"min":[
				-0.9967367053031921,
				-4.183795928955078,
				-0.9901131391525269
			],
			"type":"VEC3"
		},
		{
			"bufferView":17,
			"componentType":5126,
			"count":1544,
			"type":"VEC3"
		},
		{
			"bufferView":18,
			"componentType":5126,
			"count":1544,
			"type":"VEC2"
		},
		{
			"bufferView":19,
			"componentType":5123,
			"count":2370,
			"type":"SCALAR"
		}
	],
	"bufferViews":[
		{
			"buffer":0,
			"byteLength":1956,
			"byteOffset":0,
			"target":34962
		},
		{
			"buffer":0,
			"byteLength":1956,
			"byteOffset":1956,
			"target":34962
		},
		{
			"buffer":0,
			"byteLength":1304,
			"byteOffset":3912,
			"target":34962
		},
		{
			"buffer":0,
			"byteLength":594,
			"byteOffset":5216,
			"target":34963
		},
		{
			"buffer":0,
			"byteLength":2388,
			"byteOffset":5812,
			"target":34962
		},
		{
			"buffer":0,
			"byteLength":2388,
			"byteOffset":8200,
			"target":34962
		},
		{
			"buffer":0,
			"byteLength":1592,
			"byteOffset":10588,
			"target":34962
		},
		{
			"buffer":0,
			"byteLength":678,
			"byteOffset":12180,
			"target":34963
		},
		{
			"buffer":0,
			"byteLength":2328,
			"byteOffset":12860,
			"target":34962
		},
		{
			"buffer":0,
			"byteLength":2328,
			"byteOffset":15188,
			"target":34962
		},
		{
			"buffer":0,
			"byteLength":1552,
			"byteOffset":17516,
			"target":34962
		},
		{
			"buffer":0,
			"byteLength":900,
			"byteOffset":19068,
			"target":34963
		},
		{
			"buffer":0,
			"byteLength":1920,
			"byteOffset":19968,
			"target":34962
		},
		{
			"buffer":0,
			"byteLength":1920,
			"byteOffset":21888,
			"target":34962
		},
		{
			"buffer":0,
			"byteLength":1280,
			"byteOffset":23808,
			"target":34962
		},
		{
			"buffer":0,
			"byteLength":504,
			"byteOffset":25088,
			"target":34963
		},
		{
			"buffer":0,
			"byteLength":18528,
			"byteOffset":25592,
			"target":34962
		},
		{
			"buffer":0,
			"byteLength":18528,
			"byteOffset":44120,
			"target":34962
		},
		{
			"buffer":0,
			"byteLength":12352,
			"byteOffset":62648,
			"target":34962
		},
		{
			"buffer":0,
			"byteLength":4740,
			"byteOffset":75000,
			"target":34963
		}
	],
	"buffers":[
		{
			"byteLength":79740,
			"uri":"ChME3_body.bin"
		}
	]
}
