{
	"asset":{
		"generator":"Khronos glTF Blender I/O v4.2.57",
		"version":"2.0"
	},
	"scene":0,
	"scenes":[
		{
			"name":"Scene",
			"nodes":[
				0
			]
		}
	],
	"nodes":[
		{
			"mesh":0,
			"name":"bogie",
			"rotation":[
				0,
				0,
				-0.7071068286895752,
				0.7071068286895752
			],
			"scale":[
				0.4897667169570923,
				0.4897667169570923,
				0.4897667169570923
			],
			"translation":[
				0,
				-0.4683389365673065,
				4.266629695892334
			]
		}
	],
	"materials":[
		{
			"doubleSided":true,
			"name":"\u041c\u0430\u0442\u0435\u0440\u0456\u0430\u043b",
			"pbrMetallicRoughness":{
				"baseColorFactor":[
					0.014492912217974663,
					0.014492912217974663,
					0.014492912217974663,
					1
				],
				"metallicFactor":0
			}
		}
	],
	"meshes":[
		{
			"name":"\u0426\u0438\u043b\u0456\u043d\u0434\u0440.006",
			"primitives":[
				{
					"attributes":{
						"POSITION":0,
						"NORMAL":1,
						"TEXCOORD_0":2
					},
					"indices":3,
					"material":0
				}
			]
		}
	],
	"accessors":[
		{
			"bufferView":0,
			"componentType":5126,
			"count":3608,
			"max":[
				1.1912243366241455,
				2.618706464767456,
				5.761218070983887
			],
			"min":[
				-1.3711895942687988,
				-2.6187071800231934,
				-5.827538967132568
			],
			"type":"VEC3"
		},
		{
			"bufferView":1,
			"componentType":5126,
			"count":3608,
			"type":"VEC3"
		},
		{
			"bufferView":2,
			"componentType":5126,
			"count":3608,
			"type":"VEC2"
		},
		{
			"bufferView":3,
			"componentType":5123,
			"count":6696,
			"type":"SCALAR"
		}
	],
	"bufferViews":[
		{
			"buffer":0,
			"byteLength":43296,
			"byteOffset":0,
			"target":34962
		},
		{
			"buffer":0,
			"byteLength":43296,
			"byteOffset":43296,
			"target":34962
		},
		{
			"buffer":0,
			"byteLength":28864,
			"byteOffset":86592,
			"target":34962
		},
		{
			"buffer":0,
			"byteLength":13392,
			"byteOffset":115456,
			"target":34963
		}
	],
	"buffers":[
		{
			"byteLength":128848,
			"uri":"ChME3_bogie.bin"
		}
	]
}
