{
	"asset":{
		"generator":"Khronos glTF Blender I/O v4.2.57",
		"version":"2.0"
	},
	"scene":0,
	"scenes":[
		{
			"name":"Scene",
			"nodes":[
				0
			]
		}
	],
	"nodes":[
		{
			"mesh":0,
			"name":"\u041a\u0443\u0431.006",
			"scale":[
				0.11557137221097946,
				0.1776178628206253,
				0.9045715928077698
			],
			"translation":[
				0,
				-1.29189932346344,
				0
			]
		}
	],
	"materials":[
		{
			"doubleSided":true,
			"name":"\u041c\u0430\u0442\u0435\u0440\u0456\u0430\u043b.005",
			"pbrMetallicRoughness":{
				"baseColorFactor":[
					0.074410580098629,
					0.04082139953970909,
					0.03547263145446777,
					1
				],
				"metallicFactor":0,
				"roughnessFactor":0.5
			}
		},
		{
			"doubleSided":true,
			"name":"\u041c\u0430\u0442\u0435\u0440\u0456\u0430\u043b.006",
			"pbrMetallicRoughness":{
				"baseColorFactor":[
					0.08383174985647202,
					0.04506327956914902,
					0.020433176308870316,
					1
				],
				"metallicFactor":0,
				"roughnessFactor":0.5
			}
		},
		{
			"doubleSided":true,
			"name":"\u041c\u0430\u0442\u0435\u0440\u0456\u0430\u043b.007",
			"pbrMetallicRoughness":{
				"baseColorFactor":[
					0.05746293067932129,
					0.05746293067932129,
					0.05746293067932129,
					1
				],
				"metallicFactor":0,
				"roughnessFactor":0.5
			}
		}
	],
	"meshes":[
		{
			"name":"\u041a\u0443\u0431.007",
			"primitives":[
				{
					"attributes":{
						"POSITION":0,
						"NORMAL":1,
						"TEXCOORD_0":2
					},
					"indices":3,
					"material":0
				},
				{
					"attributes":{
						"POSITION":4,
						"NORMAL":5,
						"TEXCOORD_0":6
					},
					"indices":7,
					"material":1
				},
				{
					"attributes":{
						"POSITION":8,
						"NORMAL":9,
						"TEXCOORD_0":10
					},
					"indices":11,
					"material":2
				}
			]
		}
	],
	"accessors":[
		{
			"bufferView":0,
			"componentType":5126,
			"count":126,
			"max":[
				8.047748565673828,
				1.747774362564087,
				0.6551644206047058
			],
			"min":[
				-8.047748565673828,
				0.00039458274841308594,
				-0.6551644206047058
			],
			"type":"VEC3"
		},
		{
			"bufferView":1,
			"componentType":5126,
			"count":126,
			"type":"VEC3"
		},
		{
			"bufferView":2,
			"componentType":5126,
			"count":126,
			"type":"VEC2"
		},
		{
			"bufferView":3,
			"componentType":5123,
			"count":546,
			"type":"SCALAR"
		},
		{
			"bufferView":4,
			"componentType":5126,
			"count":36,
			"max":[
				12.477673530578613,
				0.051377177238464355,
				0.30474168062210083
			],
			"min":[
				-12.477673530578613,
				-1.7581430673599243,
				-0.24879775941371918
			],
			"type":"VEC3"
		},
		{
			"bufferView":5,
			"componentType":5126,
			"count":36,
			"type":"VEC3"
		},
		{
			"bufferView":6,
			"componentType":5126,
			"count":36,
			"type":"VEC2"
		},
		{
			"bufferView":7,
			"componentType":5123,
			"count":60,
			"type":"SCALAR"
		},
		{
			"bufferView":8,
			"componentType":5126,
			"count":17,
			"max":[
				7.390655994415283,
				1.747774362564087,
				0.6551644206047058
			],
			"min":[
				6.453604221343994,
				1.6879491806030273,
				-0.6551644206047058
			],
			"type":"VEC3"
		},
		{
			"bufferView":9,
			"componentType":5126,
			"count":17,
			"type":"VEC3"
		},
		{
			"bufferView":10,
			"componentType":5126,
			"count":17,
			"type":"VEC2"
		},
		{
			"bufferView":11,
			"componentType":5123,
			"count":54,
			"type":"SCALAR"
		}
	],
	"bufferViews":[
		{
			"buffer":0,
			"byteLength":1512,
			"byteOffset":0,
			"target":34962
		},
		{
			"buffer":0,
			"byteLength":1512,
			"byteOffset":1512,
			"target":34962
		},
		{
			"buffer":0,
			"byteLength":1008,
			"byteOffset":3024,
			"target":34962
		},
		{
			"buffer":0,
			"byteLength":1092,
			"byteOffset":4032,
			"target":34963
		},
		{
			"buffer":0,
			"byteLength":432,
			"byteOffset":5124,
			"target":34962
		},
		{
			"buffer":0,
			"byteLength":432,
			"byteOffset":5556,
			"target":34962
		},
		{
			"buffer":0,
			"byteLength":288,
			"byteOffset":5988,
			"target":34962
		},
		{
			"buffer":0,
			"byteLength":120,
			"byteOffset":6276,
			"target":34963
		},
		{
			"buffer":0,
			"byteLength":204,
			"byteOffset":6396,
			"target":34962
		},
		{
			"buffer":0,
			"byteLength":204,
			"byteOffset":6600,
			"target":34962
		},
		{
			"buffer":0,
			"byteLength":136,
			"byteOffset":6804,
			"target":34962
		},
		{
			"buffer":0,
			"byteLength":108,
			"byteOffset":6940,
			"target":34963
		}
	],
	"buffers":[
		{
			"byteLength":7048,
			"uri":"rail.bin"
		}
	]
}
