# Blender 4.2.3 LTS
# www.blender.org
mtllib spale.mtl
o Куб.006
v 0.669911 -0.289971 0.592643
v 0.775541 0.020395 0.592643
v 0.669911 -0.289971 -0.592643
v 0.775541 0.020395 -0.592643
v 0.930089 -0.289971 0.592643
v 0.824459 0.020395 0.592643
v 0.930089 -0.289971 -0.592643
v 0.824459 0.020395 -0.592643
v 0.669911 -0.270225 0.592643
v 0.669911 -0.270225 -0.592643
v 0.930089 -0.270225 -0.592643
v 0.930089 -0.270225 0.592643
v 0.745884 -0.251683 0.592643
v 0.745884 -0.251683 -0.592643
v 0.854116 -0.251683 -0.592643
v 0.854116 -0.251683 0.592643
v 0.769566 -0.238806 0.592643
v 0.769566 -0.238806 -0.592643
v 0.830434 -0.238806 -0.592643
v 0.830434 -0.238806 0.592643
v 0.779483 -0.212577 0.592643
v 0.779483 -0.212577 -0.592643
v 0.820517 -0.212577 -0.592643
v 0.820517 -0.212577 0.592643
v 0.782284 -0.147672 0.592643
v 0.782284 -0.147672 -0.592643
v 0.817716 -0.147672 -0.592643
v 0.817716 -0.147672 0.592643
v 0.779468 -0.068858 0.592643
v 0.779468 -0.068858 -0.592643
v 0.820532 -0.068858 -0.592643
v 0.820532 -0.068858 0.592643
v 0.776007 -0.057835 0.592643
v 0.776007 -0.057835 -0.592643
v 0.823993 -0.057835 -0.592643
v 0.823993 -0.057835 0.592643
v 0.736481 -0.039695 0.592643
v 0.736481 -0.039695 -0.592643
v 0.863519 -0.039695 -0.592643
v 0.863519 -0.039695 0.592643
v 0.739391 -0.006322 0.592643
v 0.739391 -0.006322 -0.592643
v 0.860609 -0.006322 -0.592643
v 0.860609 -0.006322 0.592643
v 0.745852 0.009769 0.592643
v 0.745852 0.009769 -0.592643
v 0.854148 0.009769 -0.592643
v 0.854148 0.009769 0.592643
v 0.753429 0.014834 0.592643
v 0.753429 0.014834 -0.592643
v 0.846571 0.014834 -0.592643
v 0.846571 0.014834 0.592643
v -0.930089 -0.289971 0.592643
v -0.824459 0.020395 0.592643
v -0.930089 -0.289971 -0.592643
v -0.824459 0.020395 -0.592643
v -0.669911 -0.289971 0.592643
v -0.775541 0.020395 0.592643
v -0.669911 -0.289971 -0.592643
v -0.775541 0.020395 -0.592643
v -0.930089 -0.270225 0.592643
v -0.930089 -0.270225 -0.592643
v -0.669911 -0.270225 -0.592643
v -0.669911 -0.270225 0.592643
v -0.854116 -0.251683 0.592643
v -0.854116 -0.251683 -0.592643
v -0.745884 -0.251683 -0.592643
v -0.745884 -0.251683 0.592643
v -0.830434 -0.238806 0.592643
v -0.830434 -0.238806 -0.592643
v -0.769566 -0.238806 -0.592643
v -0.769566 -0.238806 0.592643
v -0.820517 -0.212577 0.592643
v -0.820517 -0.212577 -0.592643
v -0.779483 -0.212577 -0.592643
v -0.779483 -0.212577 0.592643
v -0.817716 -0.147672 0.592643
v -0.817716 -0.147672 -0.592643
v -0.782284 -0.147672 -0.592643
v -0.782284 -0.147672 0.592643
v -0.820532 -0.068858 0.592643
v -0.820532 -0.068858 -0.592643
v -0.779468 -0.068858 -0.592643
v -0.779468 -0.068858 0.592643
v -0.823993 -0.057835 0.592643
v -0.823993 -0.057835 -0.592643
v -0.776007 -0.057835 -0.592643
v -0.776007 -0.057835 0.592643
v -0.863519 -0.039695 0.592643
v -0.863519 -0.039695 -0.592643
v -0.736481 -0.039695 -0.592643
v -0.736481 -0.039695 0.592643
v -0.860609 -0.006322 0.592643
v -0.860609 -0.006322 -0.592643
v -0.739391 -0.006322 -0.592643
v -0.739391 -0.006322 0.592643
v -0.854148 0.009769 0.592643
v -0.854148 0.009769 -0.592643
v -0.745852 0.009769 -0.592643
v -0.745852 0.009769 0.592643
v -0.846571 0.014834 0.592643
v -0.846571 0.014834 -0.592643
v -0.753429 0.014834 -0.592643
v -0.753429 0.014834 0.592643
v -1.442062 -0.602319 -0.225055
v -1.442062 -0.300916 -0.225055
v 1.442062 -0.602319 -0.225055
v 1.442062 -0.300916 -0.225055
v -1.442062 -0.602319 0.275661
v -1.442062 -0.300916 0.275661
v 1.442062 -0.602319 0.275660
v 1.442062 -0.300916 0.275660
v -1.442062 -0.280916 -0.189364
v 1.442062 -0.280916 -0.189364
v -1.442062 -0.280916 0.239969
v 1.442062 -0.280916 0.239969
vn -0.1229 0.9924 -0.0000
vn -0.4058 0.9140 -0.0000
vn 0.1229 0.9924 -0.0000
vn 0.4058 0.9140 -0.0000
vn -0.7071 -0.7071 -0.0000
vn 0.7071 -0.7071 -0.0000
vn 0.7865 0.6176 -0.0000
vn 0.3604 0.9328 -0.0000
vn 0.7537 0.6572 -0.0000
vn 0.9796 0.2009 -0.0000
vn 1.0000 0.0037 -0.0000
vn 0.9856 -0.1692 -0.0000
vn 0.7502 -0.6612 -0.0000
vn 0.8644 -0.5028 -0.0000
vn 0.9727 0.2323 -0.0000
vn 0.7765 0.6301 -0.0000
vn -0.7865 0.6176 -0.0000
vn -0.3604 0.9328 -0.0000
vn -0.7537 0.6572 -0.0000
vn -0.9796 0.2009 -0.0000
vn -1.0000 0.0037 -0.0000
vn -0.9856 -0.1692 -0.0000
vn -0.7502 -0.6612 -0.0000
vn -0.8644 -0.5028 -0.0000
vn -0.9727 0.2323 -0.0000
vn -0.7765 0.6301 -0.0000
vn -0.0000 -0.0000 -1.0000
vn 1.0000 -0.0000 -0.0000
vn -0.0000 -0.0000 1.0000
vn -1.0000 -0.0000 -0.0000
vn -0.0000 -1.0000 -0.0000
vn -0.0000 0.8724 0.4888
vn -0.0000 1.0000 -0.0000
vn -0.0000 0.8724 -0.4888
vt 0.553959 0.970748
vt 0.553959 0.634799
vt 0.560422 0.634799
vt 0.560422 0.970748
vt 0.540094 0.634799
vt 0.540095 0.970748
vt 0.533632 0.970748
vt 0.533632 0.634799
vt 0.645683 0.982467
vt 0.645683 0.646518
vt 0.719426 0.646518
vt 0.719426 0.982467
vt 0.725023 0.646518
vt 0.725023 0.982467
vt 0.747188 0.646518
vt 0.747188 0.982467
vt 0.754829 0.646518
vt 0.754829 0.982467
vt 0.762777 0.646518
vt 0.762777 0.982467
vt 0.781190 0.646518
vt 0.781190 0.982467
vt 0.803542 0.646518
vt 0.803542 0.982467
vt 0.806817 0.646518
vt 0.806817 0.982467
vt 0.819144 0.646518
vt 0.819144 0.982467
vt 0.828639 0.646518
vt 0.828639 0.982467
vt 0.833553 0.646518
vt 0.833553 0.982467
vt 0.947604 0.646165
vt 0.947604 0.310216
vt 0.953200 0.310216
vt 0.953200 0.646165
vt 0.925438 0.646165
vt 0.925438 0.310216
vt 0.917798 0.646165
vt 0.917798 0.310216
vt 0.909850 0.646165
vt 0.909850 0.310216
vt 0.891437 0.646165
vt 0.891437 0.310216
vt 0.869084 0.646165
vt 0.869084 0.310216
vt 0.865810 0.646165
vt 0.865810 0.310216
vt 0.853483 0.646165
vt 0.853483 0.310216
vt 0.843988 0.646165
vt 0.843988 0.310216
vt 0.839074 0.646165
vt 0.839074 0.310216
vt 0.836490 0.646165
vt 0.836490 0.310216
vt 0.836137 0.646518
vt 0.836137 0.982467
vt 0.540094 0.298497
vt 0.540094 0.634446
vt 0.533632 0.634446
vt 0.533632 0.298497
vt 0.553959 0.634446
vt 0.553959 0.298497
vt 0.560422 0.298497
vt 0.560422 0.634446
vt 0.762394 0.646165
vt 0.762394 0.310216
vt 0.836137 0.310216
vt 0.836137 0.646165
vt 0.842087 0.646518
vt 0.842087 0.982467
vt 0.836490 0.982467
vt 0.836490 0.646518
vt 0.864252 0.646518
vt 0.864252 0.982467
vt 0.871893 0.646518
vt 0.871893 0.982467
vt 0.879840 0.646518
vt 0.879840 0.982467
vt 0.898254 0.646518
vt 0.898254 0.982467
vt 0.920606 0.646518
vt 0.920606 0.982467
vt 0.923881 0.646518
vt 0.923881 0.982467
vt 0.936207 0.646518
vt 0.936207 0.982467
vt 0.945702 0.646518
vt 0.945702 0.982467
vt 0.950617 0.646518
vt 0.950617 0.982467
vt 0.756797 0.646165
vt 0.756797 0.310216
vt 0.734632 0.646165
vt 0.734632 0.310216
vt 0.726991 0.646165
vt 0.726991 0.310216
vt 0.719043 0.646165
vt 0.719043 0.310216
vt 0.700630 0.646165
vt 0.700630 0.310216
vt 0.678278 0.646165
vt 0.678277 0.310216
vt 0.675003 0.646165
vt 0.675003 0.310216
vt 0.662676 0.646165
vt 0.662676 0.310216
vt 0.653181 0.646165
vt 0.653181 0.310216
vt 0.648267 0.646165
vt 0.648267 0.310216
vt 0.645683 0.646165
vt 0.645683 0.310216
vt 0.953200 0.646518
vt 0.953200 0.982467
vt 0.457830 0.908727
vt 0.372402 0.908727
vt 0.372402 0.091273
vt 0.457830 0.091273
vt 0.370922 0.000177
vt 0.370922 0.085604
vt 0.229003 0.085604
vt 0.229003 0.000177
vt 0.142096 0.091273
vt 0.227523 0.091273
vt 0.227523 0.908727
vt 0.142096 0.908727
vt 0.229003 0.999823
vt 0.229003 0.914396
vt 0.370922 0.914396
vt 0.370922 0.999823
vt 0.000177 0.091273
vt 0.000177 0.908727
vt 0.239119 0.091273
vt 0.239119 0.908727
vt 0.360806 0.091273
vt 0.360806 0.908727
s 1
usemtl Матеріал.005
f 2/1/1 4/2/1 50/3/2 49/4/2
f 8/5/3 6/6/3 52/7/4 51/8/4
f 1/9/5 3/10/5 7/11/6 5/12/6
f 6/6/3 8/5/3 4/2/1 2/1/1
f 11/13/7 12/14/7 5/12/6 7/11/6
f 15/15/8 16/16/8 12/14/7 11/13/7
f 19/17/9 20/18/9 16/16/8 15/15/8
f 23/19/10 24/20/10 20/18/9 19/17/9
f 27/21/11 28/22/11 24/20/10 23/19/10
f 31/23/12 32/24/12 28/22/11 27/21/11
f 35/25/13 36/26/13 32/24/12 31/23/12
f 39/27/14 40/28/14 36/26/13 35/25/13
f 43/29/15 44/30/15 40/28/14 39/27/14
f 47/31/16 48/32/16 44/30/15 43/29/15
f 9/33/17 10/34/17 3/35/5 1/36/5
f 13/37/18 14/38/18 10/34/17 9/33/17
f 17/39/19 18/40/19 14/38/18 13/37/18
f 21/41/20 22/42/20 18/40/19 17/39/19
f 25/43/21 26/44/21 22/42/20 21/41/20
f 29/45/22 30/46/22 26/44/21 25/43/21
f 33/47/23 34/48/23 30/46/22 29/45/22
f 37/49/24 38/50/24 34/48/23 33/47/23
f 41/51/25 42/52/25 38/50/24 37/49/24
f 45/53/26 46/54/26 42/52/25 41/51/25
f 49/55/2 50/56/2 46/54/26 45/53/26
f 51/57/4 52/58/4 48/32/16 47/31/16
f 54/59/1 56/60/1 102/61/2 101/62/2
f 60/63/3 58/64/3 104/65/4 103/66/4
f 53/67/5 55/68/5 59/69/6 57/70/6
f 58/64/3 60/63/3 56/60/1 54/59/1
f 63/71/7 64/72/7 57/73/6 59/74/6
f 67/75/8 68/76/8 64/72/7 63/71/7
f 71/77/9 72/78/9 68/76/8 67/75/8
f 75/79/10 76/80/10 72/78/9 71/77/9
f 79/81/11 80/82/11 76/80/10 75/79/10
f 83/83/12 84/84/12 80/82/11 79/81/11
f 87/85/13 88/86/13 84/84/12 83/83/12
f 91/87/14 92/88/14 88/86/13 87/85/13
f 95/89/15 96/90/15 92/88/14 91/87/14
f 99/91/16 100/92/16 96/90/15 95/89/15
f 61/93/17 62/94/17 55/68/5 53/67/5
f 65/95/18 66/96/18 62/94/17 61/93/17
f 69/97/19 70/98/19 66/96/18 65/95/18
f 73/99/20 74/100/20 70/98/19 69/97/19
f 77/101/21 78/102/21 74/100/20 73/99/20
f 81/103/22 82/104/22 78/102/21 77/101/21
f 85/105/23 86/106/23 82/104/22 81/103/22
f 89/107/24 90/108/24 86/106/23 85/105/23
f 93/109/25 94/110/25 90/108/24 89/107/24
f 97/111/26 98/112/26 94/110/25 93/109/25
f 101/113/2 102/114/2 98/112/26 97/111/26
f 103/115/4 104/116/4 100/92/16 99/91/16
s 0
f 105/117/27 106/118/27 108/119/27 107/120/27
f 107/121/28 108/122/28 112/123/28 111/124/28
f 111/125/29 112/126/29 110/127/29 109/128/29
f 109/129/30 110/130/30 106/131/30 105/132/30
f 107/133/31 111/125/31 109/128/31 105/134/31
f 110/127/32 112/126/32 116/135/32 115/136/32
f 116/135/33 114/137/33 113/138/33 115/136/33
f 108/119/34 106/118/34 113/138/34 114/137/34
f 106/131/30 110/130/30 115/136/30 113/138/30
f 112/123/28 108/122/28 114/137/28 116/135/28
